<svg width="204" height="34" xmlns="http://www.w3.org/2000/svg"><defs><linearGradient x1=".758%" y1="0%" y2="100%" id="a"><stop stop-color="#20C6B7" offset="0%"/><stop stop-color="#4D9ABF" offset="100%"/></linearGradient></defs><g fill="none" fill-rule="evenodd"><path d="M13.072.773h6.484v22.592c0 3.185-.92 5.711-2.76 7.579-1.841 1.868-4.16 2.801-6.954 2.801-3.025 0-5.42-.833-7.183-2.5C.895 29.578.043 27.123.104 23.878l.069-.134h6.346c0 1.712.31 2.962.928 3.75.619.79 1.417 1.184 2.395 1.184.886 0 1.645-.469 2.28-1.407.633-.937.95-2.24.95-3.906V.773zm24.52 25.606h-8.798l-1.787 6.898H20.43L29.825.773h6.782l9.37 32.504h-6.575l-1.81-6.898zm-7.47-5.113h6.141L33.262 9.77h-.138l-3.001 11.496zM55.423.773l5.98 23.864h.137L67.59.773h8.5v32.504h-6.485v-9.443l.55-12.636-.137-.022-6.37 22.1h-4.33l-6.3-21.921-.138.022.573 12.457v9.443h-6.485V.773h8.455zm46.195 24.713c0-2.04-.768-3.669-2.303-4.89-1.535-1.22-4.197-2.336-7.985-3.348-3.803-.997-6.587-2.132-8.351-3.404-1.764-1.273-2.647-3.13-2.647-5.57 0-2.426 1.04-4.36 3.116-5.804 2.078-1.444 4.728-2.166 7.95-2.166 3.254 0 5.912.886 7.974 2.657 2.062 1.77 3.063 4.048 3.002 6.831l-.046.134h-1.054c0-2.426-.917-4.435-2.75-6.028-1.832-1.592-4.208-2.388-7.125-2.388-3.024 0-5.419.658-7.183 1.975-1.764 1.318-2.646 2.899-2.646 4.744 0 1.846.73 3.379 2.188 4.599 1.459 1.22 4.097 2.307 7.916 3.26 3.696.952 6.488 2.116 8.374 3.493 1.887 1.377 2.83 3.33 2.83 5.86 0 2.575-1.077 4.602-3.23 6.083-2.155 1.481-4.85 2.221-8.089 2.221-3.345 0-6.224-.762-8.637-2.288-2.414-1.525-3.582-3.925-3.506-7.2l.046-.133h1.03c0 2.947 1.116 5.086 3.346 6.418 2.23 1.332 4.804 1.998 7.721 1.998 2.933 0 5.343-.655 7.229-1.965 1.886-1.31 2.83-3.006 2.83-5.09zm25.187-20.18a.646.646 0 0 1-.187.447.58.58 0 0 1-.439.203h-9.68v26.71c0 .163-.07.306-.209.428a.681.681 0 0 1-.459.183.73.73 0 0 1-.459-.163.536.536 0 0 1-.208-.447V5.957h-9.723a.58.58 0 0 1-.438-.204.646.646 0 0 1-.187-.447.77.77 0 0 1 .166-.468.541.541 0 0 1 .46-.223h20.737c.195 0 .348.074.46.223a.77.77 0 0 1 .166.468zm18.937 18.26h-16.313l-3.712 9.71h-1.352L136.828.774h1.513l12.487 32.504h-1.352l-3.735-9.711zm-15.855-1.206h15.397l-6.988-18.305-.642-1.83h-.137l-.619 1.83-7.01 18.305zm45.351.96l.046.134c.061 3.334-.973 5.882-3.104 7.646-2.131 1.764-4.938 2.645-8.42 2.645-3.651 0-6.576-1.313-8.776-3.94s-3.299-6.076-3.299-10.347v-4.866c0-4.257 1.1-7.702 3.3-10.336 2.199-2.635 5.124-3.952 8.775-3.952 3.482 0 6.289.886 8.42 2.657 2.13 1.77 3.165 4.3 3.104 7.59l-.046.134h-1.054c0-2.932-.935-5.194-2.806-6.787-1.871-1.592-4.41-2.388-7.618-2.388-3.254 0-5.873 1.198-7.86 3.594-1.985 2.396-2.978 5.544-2.978 9.443v4.911c0 3.944.993 7.11 2.979 9.499 1.986 2.389 4.605 3.583 7.859 3.583 3.207 0 5.747-.767 7.618-2.3 1.87-1.532 2.806-3.84 2.806-6.92h1.054zm11.51-5.916h-5.108v15.873H180.4V.773h1.238v15.448h5.453L201.252.773h1.465l.046.112-14.64 16.095 15.694 16.163-.069.134h-1.443l-15.557-15.873z" fill="#4A4A4A"/><path d="M126.596 1.362a.578.578 0 0 1-.188.427.608.608 0 0 1-.438.183h-20.53a.608.608 0 0 1-.438-.183.578.578 0 0 1 0-.854.608.608 0 0 1 .438-.183h20.53c.167 0 .313.061.438.183a.578.578 0 0 1 .188.427z" fill="url(#a)"/></g></svg>